<?xml version="1.0" encoding="UTF-8" standalone="no"?>
<!DOCTYPE svg PUBLIC "-//W3C//DTD SVG 1.1//EN" "http://www.w3.org/Graphics/SVG/1.1/DTD/svg11.dtd">
<svg xmlns="http://www.w3.org/2000/svg" version="1.1" viewBox="0.00 0.00 1254.00 1672.00">
<g stroke-width="2.00" fill="none" stroke-linecap="butt">
<path stroke="#86919e" vector-effect="non-scaling-stroke" d="
  M 965.58 633.20
  C 964.47 637.43 962.89 641.21 960.72 645.06
  Q 953.96 657.07 942.09 671.09
  Q 940.65 672.79 941.64 674.62
  Q 950.61 691.00 958.41 708.32
  Q 968.20 730.08 974.80 755.00
  Q 984.84 792.87 986.09 832.31
  Q 986.35 840.39 985.74 852.17
  Q 985.00 866.32 984.49 872.00
  Q 981.02 910.04 969.27 944.80
  Q 967.59 949.76 965.38 956.21
  Q 963.04 963.04 961.08 967.45
  Q 948.51 995.81 939.04 1011.81
  Q 922.92 1039.03 897.51 1067.25
  Q 886.10 1079.93 875.44 1088.94
  C 861.78 1100.49 845.37 1113.74 828.92 1123.42
  Q 806.59 1136.58 784.25 1145.93
  Q 774.00 1150.22 759.77 1154.66
  Q 743.37 1159.79 734.76 1161.72
  Q 714.46 1166.27 709.07 1167.08
  Q 669.64 1172.99 630.25 1169.34
  Q 609.05 1167.36 598.71 1165.23
  Q 592.93 1164.04 577.87 1160.44
  Q 568.52 1158.20 557.37 1154.39
  C 527.99 1144.34 501.20 1131.43 475.83 1113.79
  Q 459.52 1102.45 447.15 1091.61
  Q 426.48 1073.49 406.54 1048.73
  Q 375.56 1010.24 357.43 964.43
  Q 352.52 952.04 347.89 937.54
  C 342.93 922.01 340.21 908.57 337.66 893.72
  C 336.21 885.28 335.81 878.91 334.66 869.43
  Q 332.92 855.08 333.14 838.01
  Q 333.59 802.91 340.99 767.79
  C 343.23 757.15 347.02 745.58 350.33 735.56
  C 373.16 666.40 419.08 606.16 480.66 566.69
  Q 496.79 556.35 502.09 553.37
  Q 511.07 548.33 529.82 539.84
  C 535.86 537.10 541.29 535.44 547.72 533.13
  Q 556.55 529.95 561.25 528.48
  Q 618.43 510.64 680.01 514.07
  Q 689.24 514.59 694.77 515.24
  Q 702.73 516.19 706.15 516.74
  Q 715.04 518.18 717.49 518.57
  Q 751.23 523.98 782.87 536.87
  C 797.57 542.85 811.94 549.04 825.53 557.47
  C 848.42 571.67 868.16 586.10 885.65 604.39
  Q 887.73 606.56 889.78 607.99
  A 7.00 6.96 -25.9 0 0 893.45 609.25
  L 951.56 612.13
  A 0.74 0.74 0.0 0 0 952.31 611.19
  Q 952.18 610.72 951.91 610.37
  C 943.92 600.30 940.26 595.17 932.89 587.10
  Q 913.22 565.57 888.07 545.83
  Q 851.17 516.87 809.21 499.06
  Q 796.36 493.61 788.41 491.08
  C 783.14 489.40 778.79 487.52 774.18 486.07
  C 758.54 481.16 743.41 477.68 726.26 474.53
  Q 716.50 472.74 704.22 471.47
  Q 686.35 469.61 682.03 469.42
  Q 662.42 468.58 650.75 469.01
  Q 634.53 469.60 610.28 472.15
  Q 600.18 473.21 574.81 478.44
  C 570.98 479.23 568.06 480.41 564.70 481.01
  Q 561.40 481.60 557.16 483.11
  C 553.38 484.45 549.26 485.16 545.14 486.56
  Q 521.54 494.61 506.29 501.30
  Q 492.05 507.55 472.87 518.39
  Q 456.08 527.87 441.27 538.63
  Q 414.77 557.89 393.55 579.53
  Q 388.21 584.98 370.69 605.27
  C 365.08 611.77 361.50 617.10 354.62 626.61
  C 346.73 637.53 339.65 649.77 333.14 661.68
  Q 306.09 711.11 295.29 767.53
  Q 293.92 774.69 291.75 792.35
  Q 287.92 823.44 288.79 854.22
  C 289.08 864.39 290.47 875.04 291.43 885.23
  C 292.47 896.20 293.39 900.96 295.04 912.21
  Q 295.40 914.68 296.04 916.85
  C 297.17 920.70 297.48 924.41 298.55 928.47
  Q 307.72 962.98 318.36 987.69
  Q 325.46 1004.18 337.15 1025.57
  Q 345.38 1040.63 356.05 1055.66
  Q 367.96 1072.44 377.60 1083.92
  Q 407.84 1119.95 448.47 1148.76
  Q 454.09 1152.75 469.71 1162.66
  Q 481.97 1170.44 491.63 1175.10
  Q 524.83 1191.10 552.70 1199.51
  Q 583.68 1208.87 615.50 1212.41
  Q 625.19 1213.49 641.78 1214.86
  C 661.46 1216.48 677.93 1214.52 695.75 1213.23
  Q 704.33 1212.60 711.02 1211.37
  Q 711.89 1211.20 717.09 1210.42
  Q 744.81 1206.20 777.10 1195.77
  Q 795.44 1189.85 804.93 1185.40
  Q 816.70 1179.88 825.06 1175.80
  Q 843.08 1167.02 860.63 1155.88
  Q 877.90 1144.92 900.31 1126.23
  Q 913.45 1115.28 926.84 1100.87
  Q 942.89 1083.61 950.88 1073.13
  Q 968.14 1050.49 977.21 1035.25
  Q 1008.14 983.27 1022.07 923.81
  C 1027.45 900.83 1030.06 878.40 1031.22 855.50
  Q 1032.84 823.76 1028.39 791.52
  C 1025.60 771.27 1021.43 750.30 1014.79 729.71
  C 1008.88 711.39 1002.33 693.53 993.73 676.77
  Q 982.36 654.62 968.42 632.75
  A 1.57 1.57 0.0 0 0 965.58 633.20"
/>
<path stroke="#f2d493" vector-effect="non-scaling-stroke" d="
  M 800.70 723.23
  C 802.90 724.24 805.67 727.09 808.40 728.68
  Q 816.86 733.60 826.23 740.36
  Q 848.75 756.61 851.31 758.48
  C 854.55 760.85 859.51 762.81 861.45 757.96
  Q 862.25 755.96 861.58 754.17
  C 859.59 748.85 858.68 743.99 856.85 738.16
  Q 851.72 721.79 847.57 705.25
  Q 845.70 697.83 844.15 692.86
  A 2.42 2.42 0.0 0 1 844.99 690.21
  Q 880.07 663.29 895.67 651.13
  Q 896.64 650.37 897.05 650.08
  C 900.22 647.86 901.50 643.86 897.00 641.95
  Q 895.05 641.13 890.73 641.08
  C 869.17 640.85 849.41 641.07 828.75 639.85
  A 1.82 1.81 -8.0 0 1 827.14 638.64
  Q 810.41 591.37 806.20 579.42
  C 805.56 577.60 804.22 574.68 802.85 573.85
  C 798.70 571.31 796.65 577.19 795.46 580.47
  Q 783.51 613.17 773.83 639.11
  A 1.87 1.86 -80.5 0 1 772.13 640.33
  C 750.47 640.92 728.55 640.11 707.25 640.89
  C 705.09 640.96 702.47 641.65 702.02 644.20
  Q 701.28 648.39 704.62 650.89
  Q 730.00 669.94 751.89 687.11
  Q 752.41 687.51 755.55 689.69
  A 1.83 1.81 -63.3 0 1 756.23 691.78
  Q 755.07 695.19 753.68 699.15
  Q 752.81 701.60 745.84 725.97
  C 743.43 734.38 739.51 745.53 737.72 754.24
  C 736.00 762.55 742.18 761.61 747.09 758.35
  Q 769.91 743.18 792.78 727.29
  Q 796.90 724.43 798.92 723.30
  A 1.96 1.95 42.6 0 1 800.70 723.23"
/>
<path stroke="#80b2d2" vector-effect="non-scaling-stroke" d="
  M 745.60 800.49
  L 745.60 1107.76
  A 1.32 1.32 0.0 0 0 746.95 1109.08
  Q 749.10 1109.02 751.30 1108.32
  Q 780.57 1098.98 804.82 1084.06
  Q 815.25 1077.64 825.83 1070.49
  C 833.22 1065.49 839.07 1059.96 846.76 1053.51
  C 849.41 1051.28 848.90 1045.12 848.89 1040.78
  Q 848.75 940.44 848.71 854.00
  C 848.69 833.80 849.19 817.03 848.66 799.92
  A 4.13 4.13 0.0 0 0 846.75 796.57
  Q 828.79 785.14 800.91 768.19
  C 798.91 766.97 797.60 767.25 795.74 768.46
  Q 770.98 784.53 746.61 798.72
  A 2.06 2.04 75.0 0 0 745.60 800.49"
/>
<path stroke="#829bb1" vector-effect="non-scaling-stroke" d="
  M 613.53 818.22
  L 590.49 827.89
  A 2.64 2.63 -11.4 0 0 588.87 830.32
  L 589.06 1065.79"
/>
<path stroke="#86919e" vector-effect="non-scaling-stroke" d="
  M 589.06 1065.79
  L 588.76 1116.04
  A 1.12 1.12 0.0 0 0 589.66 1117.14
  Q 624.30 1123.97 659.75 1123.45
  C 669.68 1123.30 681.85 1121.99 691.59 1121.06
  A 1.20 1.19 -3.2 0 0 692.67 1119.86
  Q 692.51 1098.97 692.53 1088.00
  Q 692.75 976.16 692.59 868.50
  Q 692.54 841.02 692.81 819.25
  C 692.96 806.69 692.50 789.53 692.37 779.32
  Q 692.35 777.25 691.86 776.37
  A 1.54 1.54 0.0 0 0 689.84 775.74
  C 686.10 777.57 682.20 780.98 678.63 783.29
  Q 647.48 803.40 613.53 818.22"
/>
<path stroke="#082d51" vector-effect="non-scaling-stroke" d="
  M 589.06 1065.79
  Q 591.68 1072.50 591.38 1079.20
  C 591.03 1087.16 591.00 1092.85 592.02 1099.95
  C 593.03 1106.95 592.67 1113.27 599.85 1115.16
  Q 605.41 1116.62 622.66 1119.44
  Q 632.93 1121.11 638.50 1121.02
  Q 655.20 1120.76 657.70 1120.88
  Q 657.99 1120.90 678.75 1118.39
  Q 682.13 1117.98 684.64 1116.67
  C 688.05 1114.89 688.82 1110.66 689.18 1107.02
  C 689.79 1100.95 689.46 1094.88 690.05 1088.31
  Q 690.76 1080.29 690.55 1074.55
  Q 688.79 1026.27 689.01 1015.54
  C 689.26 1003.42 689.71 994.43 689.68 984.12
  C 689.59 960.48 690.23 937.04 689.49 912.93
  Q 688.89 893.19 689.14 887.74
  Q 690.44 859.20 689.56 839.43
  Q 688.43 813.88 688.68 805.53
  Q 688.92 797.58 689.17 787.48
  A 1.61 1.58 31.7 0 0 688.97 786.67
  C 686.20 781.69 682.10 784.02 678.39 786.41
  Q 667.88 793.17 660.28 798.85
  C 655.66 802.31 650.50 804.57 646.14 806.95
  Q 642.94 808.69 637.46 810.56
  Q 631.48 812.59 628.75 814.19
  Q 617.26 820.91 614.10 822.09
  C 604.11 825.81 598.47 827.64 593.16 830.57
  A 0.07 0.06 -28.5 0 1 593.07 830.55
  L 592.92 830.34
  A 0.26 0.25 56.6 0 1 592.99 829.98
  Q 599.51 825.65 602.02 824.67
  Q 609.76 821.63 613.53 818.22"
/>
<path stroke="#86919e" vector-effect="non-scaling-stroke" d="
  M 537.06 1101.05
  L 537.06 904.18
  A 1.59 1.58 -9.9 0 0 534.94 902.69
  Q 534.61 902.81 534.01 903.07
  Q 509.75 913.44 490.87 918.85
  Q 467.48 925.55 458.71 927.64
  Q 445.29 930.83 435.48 932.84
  A 1.10 1.09 84.4 0 0 434.61 933.90
  Q 434.02 983.11 434.78 1023.44
  C 434.83 1026.21 435.23 1027.66 436.87 1029.87
  Q 441.12 1035.59 447.64 1042.11
  Q 460.37 1054.84 473.89 1065.84
  C 480.36 1071.10 489.32 1076.97 496.79 1082.10
  Q 502.54 1086.05 514.61 1092.45
  C 521.52 1096.12 528.56 1098.62 535.59 1101.98
  A 1.03 1.03 0.0 0 0 537.06 1101.05"
/>
<path stroke="#86919e" vector-effect="non-scaling-stroke" d="
  M 337.90 1319.40
  A 0.93 0.93 0.0 0 0 338.58 1318.19
  C 336.34 1311.74 334.54 1305.98 331.23 1300.14
  C 322.64 1285.02 308.06 1275.68 290.86 1272.89
  Q 282.42 1271.52 277.00 1271.45
  Q 266.06 1271.30 253.41 1275.21
  C 236.80 1280.35 224.57 1291.35 215.93 1306.53
  Q 210.09 1316.81 207.76 1331.53
  Q 204.55 1351.89 208.82 1370.95
  C 212.38 1386.84 222.32 1402.73 235.86 1412.20
  C 251.75 1423.31 274.15 1426.01 293.03 1421.99
  Q 306.61 1419.09 316.62 1411.58
  C 327.91 1403.12 333.88 1392.45 338.68 1379.49
  A 1.80 1.80 0.0 0 0 337.15 1377.07
  L 312.37 1374.89
  A 1.26 1.25 -75.8 0 0 311.09 1375.66
  Q 303.13 1394.55 283.16 1397.88
  C 272.40 1399.67 261.14 1396.39 252.37 1390.14
  C 247.20 1386.47 242.73 1380.20 240.29 1374.70
  Q 233.82 1360.10 235.35 1343.25
  Q 236.16 1334.27 237.23 1330.20
  C 241.33 1314.60 251.51 1301.14 268.30 1298.26
  Q 274.02 1297.28 275.49 1297.27
  Q 301.64 1297.09 310.48 1320.60
  A 1.26 1.25 76.9 0 0 311.77 1321.41
  Q 318.25 1320.83 327.74 1320.49
  Q 333.87 1320.27 337.90 1319.40"
/>
<path stroke="#85aced" vector-effect="non-scaling-stroke" d="
  M 788.06 1419.42
  L 752.46 1363.18
  A 0.62 0.62 0.0 0 1 752.81 1362.25
  C 771.96 1356.89 782.66 1342.92 783.06 1323.31
  Q 783.18 1317.43 782.82 1314.75
  Q 779.84 1292.20 760.12 1282.46
  Q 749.87 1277.39 741.18 1276.94
  Q 733.72 1276.56 728.00 1276.53
  Q 725.67 1276.52 679.25 1276.82
  Q 676.65 1276.83 675.60 1276.89
  A 0.73 0.73 0.0 0 0 674.91 1277.67
  Q 675.53 1287.20 675.27 1298.70
  C 674.93 1314.66 675.44 1332.57 675.23 1346.60
  Q 674.98 1363.71 675.12 1373.40
  Q 675.34 1387.92 675.06 1418.92
  A 1.73 1.73 0.0 0 0 676.79 1420.67
  L 701.21 1420.67
  A 1.20 1.19 89.8 0 0 702.40 1419.46
  Q 702.16 1385.96 702.19 1371.50
  Q 702.19 1368.67 702.51 1367.26
  A 1.56 1.56 0.0 0 1 704.03 1366.05
  L 722.86 1366.05
  A 3.13 3.11 -15.7 0 1 725.52 1367.53
  Q 741.17 1393.09 755.43 1419.29
  A 2.76 2.74 -14.2 0 0 757.85 1420.72
  L 787.34 1420.72
  A 0.85 0.85 0.0 0 0 788.06 1419.42"
/>
<path stroke="#86919e" vector-effect="non-scaling-stroke" d="
  M 381.92 1277.86
  A 1.02 1.02 0.0 0 0 380.90 1276.84
  L 356.82 1276.84
  A 1.02 1.02 0.0 0 0 355.80 1277.86
  L 355.80 1419.58
  A 1.02 1.02 0.0 0 0 356.82 1420.60
  L 380.90 1420.60
  A 1.02 1.02 0.0 0 0 381.92 1419.58
  L 381.92 1277.86"
/>
<path stroke="#86919e" vector-effect="non-scaling-stroke" d="
  M 429.0342 1283.5466
  A 6.91 6.91 0.0 0 0 422.0522 1276.7093
  L 408.4130 1276.8521
  A 6.91 6.91 0.0 0 0 401.5757 1283.8341
  L 401.7058 1296.2534
  A 6.91 6.91 0.0 0 0 408.6878 1303.0907
  L 422.3270 1302.9479
  A 6.91 6.91 0.0 0 0 429.1643 1295.9659
  L 429.0342 1283.5466"
/>
<path stroke="#85aced" vector-effect="non-scaling-stroke" d="
  M 1055.12 1355.89
  A 1.14 1.14 0.0 0 1 1053.62 1354.70
  Q 1054.40 1347.09 1054.32 1339.50
  Q 1054.01 1306.84 1053.91 1277.71
  A 0.94 0.94 0.0 0 0 1052.97 1276.77
  L 1029.32 1276.77
  A 1.25 1.24 -90.0 0 0 1028.08 1278.02
  L 1028.08 1419.11
  A 1.41 1.40 90.0 0 0 1029.48 1420.52
  L 1053.51 1420.52
  A 1.00 1.00 0.0 0 0 1054.51 1419.52
  L 1054.51 1388.12
  A 3.26 3.25 -24.0 0 1 1055.35 1385.94
  L 1062.07 1378.49
  A 1.97 1.97 0.0 0 1 1065.21 1378.79
  C 1068.99 1385.01 1073.26 1390.53 1077.53 1396.93
  Q 1086.28 1410.03 1091.52 1418.44
  C 1092.80 1420.50 1094.17 1420.91 1096.52 1420.88
  Q 1111.58 1420.67 1122.16 1420.84
  Q 1123.09 1420.85 1123.37 1419.83
  Q 1123.48 1419.42 1123.29 1418.84
  C 1122.80 1417.34 1120.55 1415.36 1120.19 1414.83
  C 1112.41 1403.58 1104.77 1393.27 1096.21 1380.52
  Q 1089.58 1370.65 1082.14 1360.49
  A 1.42 1.42 0.0 0 1 1082.24 1358.69
  Q 1094.63 1345.24 1106.47 1331.49
  C 1110.57 1326.74 1115.54 1322.01 1118.65 1318.48
  A 1.27 1.27 0.0 0 0 1118.53 1316.68
  Q 1118.00 1316.22 1116.99 1316.25
  Q 1102.32 1316.73 1092.02 1316.96
  Q 1089.55 1317.02 1088.39 1318.40
  C 1078.08 1330.69 1065.12 1343.76 1056.93 1354.42
  Q 1056.06 1355.57 1055.12 1355.89"
/>
<path stroke="#86919e" vector-effect="non-scaling-stroke" d="
  M 584.41 1420.13
  L 584.41 1387.41
  A 2.80 2.79 77.6 0 1 586.03 1384.87
  Q 589.71 1383.17 592.15 1378.90
  A 1.64 1.64 0.0 0 1 594.93 1378.78
  L 622.65 1419.09
  A 3.61 3.59 -17.1 0 0 625.62 1420.65
  L 652.45 1420.66
  A 1.46 1.45 83.0 0 0 653.86 1418.85
  Q 653.85 1418.79 653.49 1418.36
  Q 649.52 1413.54 648.41 1411.92
  Q 633.17 1389.62 617.62 1367.94
  Q 616.06 1365.76 612.61 1360.55
  A 1.25 1.23 40.5 0 1 612.51 1359.34
  Q 613.12 1358.00 614.26 1356.77
  Q 624.30 1345.89 640.56 1327.56
  C 643.00 1324.82 646.45 1321.75 648.79 1318.76
  A 1.24 1.24 0.0 0 0 648.03 1316.78
  Q 646.69 1316.54 644.74 1316.57
  Q 635.17 1316.73 622.51 1316.80
  Q 620.14 1316.82 619.04 1318.03
  Q 600.00 1338.94 593.68 1346.18
  Q 590.29 1350.07 587.28 1354.02
  Q 586.30 1355.32 585.05 1355.74
  A 0.59 0.58 -9.6 0 1 584.27 1355.19
  L 584.27 1278.42
  A 1.38 1.38 0.0 0 0 582.89 1277.04
  L 559.22 1277.04
  A 1.20 1.19 0.0 0 0 558.02 1278.23
  L 558.02 1419.48
  A 1.24 1.24 0.0 0 0 559.26 1420.72
  L 583.81 1420.72
  A 0.60 0.59 -0.0 0 0 584.41 1420.13"
/>
<path stroke="#85aced" vector-effect="non-scaling-stroke" d="
  M 867.43 1409.27
  L 867.43 1418.34
  A 2.18 2.17 -90.0 0 0 869.60 1420.52
  L 891.63 1420.52
  A 1.52 1.51 -4.5 0 0 893.13 1418.77
  C 892.43 1414.47 891.76 1411.19 891.76 1406.74
  Q 891.74 1382.32 891.32 1360.01
  C 891.20 1353.54 891.48 1347.40 890.41 1342.79
  Q 887.50 1330.26 878.74 1322.98
  Q 870.74 1316.33 857.32 1314.32
  Q 845.81 1312.59 833.06 1315.40
  Q 820.55 1318.15 813.24 1324.86
  Q 804.75 1332.65 801.83 1343.75
  A 1.70 1.70 0.0 0 0 803.32 1345.87
  L 823.73 1347.67
  A 1.58 1.58 0.0 0 0 825.35 1346.63
  Q 829.21 1335.76 840.97 1334.93
  C 854.65 1333.96 867.34 1336.09 866.42 1353.28
  C 866.24 1356.67 864.85 1355.96 862.09 1356.22
  Q 852.32 1357.13 837.01 1358.28
  Q 835.47 1358.40 824.29 1360.38
  C 818.84 1361.35 813.94 1363.84 810.00 1366.25
  C 800.66 1371.98 796.83 1382.50 797.39 1393.29
  C 798.06 1406.08 805.41 1415.74 817.25 1420.04
  Q 837.50 1427.39 855.56 1418.07
  C 860.20 1415.67 862.85 1412.88 865.95 1408.77
  A 0.82 0.82 0.0 0 1 867.43 1409.27"
/>
<path stroke="#85aced" vector-effect="non-scaling-stroke" d="
  M 914.12 1316.46
  A 0.84 0.84 0.0 0 0 913.27 1317.30
  L 913.27 1419.29
  A 1.18 1.18 0.0 0 0 914.45 1420.47
  L 938.24 1420.47
  A 0.80 0.80 0.0 0 0 939.04 1419.68
  Q 939.37 1365.33 939.36 1359.39
  C 939.34 1346.83 948.22 1336.64 961.05 1336.15
  Q 978.12 1335.51 982.29 1351.81
  Q 982.86 1354.06 982.85 1356.50
  Q 982.70 1374.90 982.83 1419.54
  A 1.37 1.36 89.8 0 0 984.19 1420.90
  L 1007.68 1420.90
  A 1.08 1.07 -89.7 0 0 1008.75 1419.83
  Q 1009.10 1383.92 1008.02 1349.26
  Q 1007.84 1343.75 1004.97 1335.70
  C 1001.59 1326.25 995.15 1320.26 986.45 1316.65
  Q 978.33 1313.28 966.57 1314.03
  Q 950.18 1315.07 940.68 1328.11
  A 1.26 1.24 -47.4 0 1 938.72 1328.21
  Q 938.49 1327.93 938.58 1327.24
  Q 938.99 1324.35 939.19 1321.50
  Q 939.40 1318.41 938.90 1317.58
  A 1.86 1.84 -15.0 0 0 937.33 1316.69
  L 914.12 1316.46"
/>
<path stroke="#86919e" vector-effect="non-scaling-stroke" d="
  M 541.88 1350.19
  C 542.20 1347.89 541.39 1345.42 540.60 1343.01
  Q 535.41 1327.14 520.71 1319.74
  C 498.83 1308.73 470.71 1313.58 455.39 1333.47
  C 449.97 1340.50 447.56 1348.25 445.88 1357.64
  Q 442.97 1373.92 447.46 1388.74
  Q 453.56 1408.85 472.32 1417.81
  Q 489.08 1425.82 506.83 1422.17
  C 525.20 1418.40 538.33 1406.69 542.52 1388.47
  Q 543.02 1386.30 540.60 1386.09
  Q 533.57 1385.48 519.24 1384.67
  A 1.64 1.63 -77.4 0 0 517.64 1385.69
  Q 511.69 1400.14 497.03 1400.62
  C 475.07 1401.33 468.94 1378.82 471.40 1361.57
  C 473.48 1346.99 481.00 1336.59 496.49 1336.15
  Q 508.41 1335.81 514.74 1345.51
  Q 516.31 1347.91 516.76 1350.57
  A 1.42 1.41 -5.8 0 0 518.20 1351.74
  L 541.01 1350.97
  A 0.91 0.90 -86.6 0 0 541.88 1350.19"
/>
<path stroke="#86919e" vector-effect="non-scaling-stroke" d="
  M 428.73 1317.68
  A 0.86 0.86 0.0 0 0 427.87 1316.82
  L 403.23 1316.82
  A 0.86 0.86 0.0 0 0 402.37 1317.68
  L 402.37 1419.82
  A 0.86 0.86 0.0 0 0 403.23 1420.68
  L 427.87 1420.68
  A 0.86 0.86 0.0 0 0 428.73 1419.82
  L 428.73 1317.68"
/>
<path stroke="#85aced" vector-effect="non-scaling-stroke" d="
  M 702.47 1302.31
  L 702.53 1341.09
  A 1.68 1.68 0.0 0 0 704.22 1342.76
  L 733.46 1342.71
  A 22.14 19.52 -0.1 0 0 755.56 1323.15
  L 755.56 1320.05
  A 22.14 19.52 -0.1 0 0 733.38 1300.57
  L 704.14 1300.62
  A 1.68 1.68 0.0 0 0 702.47 1302.31"
/>
<path stroke="#85aced" vector-effect="non-scaling-stroke" d="
  M 866.85 1372.90
  A 0.57 0.56 -2.8 0 0 866.23 1372.34
  C 855.19 1373.33 844.05 1374.01 833.91 1377.37
  C 825.04 1380.31 820.75 1387.04 824.75 1396.12
  A 3.57 3.49 -80.8 0 0 825.56 1397.27
  C 830.91 1402.32 836.82 1402.80 843.85 1402.40
  C 854.86 1401.78 865.41 1394.46 866.47 1382.80
  Q 866.92 1377.95 866.85 1372.90"
/>
</g>
<path fill="#fffffe" d="
  M 1254.00 0.00
  L 1254.00 1672.00
  L 0.00 1672.00
  L 0.00 0.00
  L 1254.00 0.00
  Z
  M 965.58 633.20
  C 964.47 637.43 962.89 641.21 960.72 645.06
  Q 953.96 657.07 942.09 671.09
  Q 940.65 672.79 941.64 674.62
  Q 950.61 691.00 958.41 708.32
  Q 968.20 730.08 974.80 755.00
  Q 984.84 792.87 986.09 832.31
  Q 986.35 840.39 985.74 852.17
  Q 985.00 866.32 984.49 872.00
  Q 981.02 910.04 969.27 944.80
  Q 967.59 949.76 965.38 956.21
  Q 963.04 963.04 961.08 967.45
  Q 948.51 995.81 939.04 1011.81
  Q 922.92 1039.03 897.51 1067.25
  Q 886.10 1079.93 875.44 1088.94
  C 861.78 1100.49 845.37 1113.74 828.92 1123.42
  Q 806.59 1136.58 784.25 1145.93
  Q 774.00 1150.22 759.77 1154.66
  Q 743.37 1159.79 734.76 1161.72
  Q 714.46 1166.27 709.07 1167.08
  Q 669.64 1172.99 630.25 1169.34
  Q 609.05 1167.36 598.71 1165.23
  Q 592.93 1164.04 577.87 1160.44
  Q 568.52 1158.20 557.37 1154.39
  C 527.99 1144.34 501.20 1131.43 475.83 1113.79
  Q 459.52 1102.45 447.15 1091.61
  Q 426.48 1073.49 406.54 1048.73
  Q 375.56 1010.24 357.43 964.43
  Q 352.52 952.04 347.89 937.54
  C 342.93 922.01 340.21 908.57 337.66 893.72
  C 336.21 885.28 335.81 878.91 334.66 869.43
  Q 332.92 855.08 333.14 838.01
  Q 333.59 802.91 340.99 767.79
  C 343.23 757.15 347.02 745.58 350.33 735.56
  C 373.16 666.40 419.08 606.16 480.66 566.69
  Q 496.79 556.35 502.09 553.37
  Q 511.07 548.33 529.82 539.84
  C 535.86 537.10 541.29 535.44 547.72 533.13
  Q 556.55 529.95 561.25 528.48
  Q 618.43 510.64 680.01 514.07
  Q 689.24 514.59 694.77 515.24
  Q 702.73 516.19 706.15 516.74
  Q 715.04 518.18 717.49 518.57
  Q 751.23 523.98 782.87 536.87
  C 797.57 542.85 811.94 549.04 825.53 557.47
  C 848.42 571.67 868.16 586.10 885.65 604.39
  Q 887.73 606.56 889.78 607.99
  A 7.00 6.96 -25.9 0 0 893.45 609.25
  L 951.56 612.13
  A 0.74 0.74 0.0 0 0 952.31 611.19
  Q 952.18 610.72 951.91 610.37
  C 943.92 600.30 940.26 595.17 932.89 587.10
  Q 913.22 565.57 888.07 545.83
  Q 851.17 516.87 809.21 499.06
  Q 796.36 493.61 788.41 491.08
  C 783.14 489.40 778.79 487.52 774.18 486.07
  C 758.54 481.16 743.41 477.68 726.26 474.53
  Q 716.50 472.74 704.22 471.47
  Q 686.35 469.61 682.03 469.42
  Q 662.42 468.58 650.75 469.01
  Q 634.53 469.60 610.28 472.15
  Q 600.18 473.21 574.81 478.44
  C 570.98 479.23 568.06 480.41 564.70 481.01
  Q 561.40 481.60 557.16 483.11
  C 553.38 484.45 549.26 485.16 545.14 486.56
  Q 521.54 494.61 506.29 501.30
  Q 492.05 507.55 472.87 518.39
  Q 456.08 527.87 441.27 538.63
  Q 414.77 557.89 393.55 579.53
  Q 388.21 584.98 370.69 605.27
  C 365.08 611.77 361.50 617.10 354.62 626.61
  C 346.73 637.53 339.65 649.77 333.14 661.68
  Q 306.09 711.11 295.29 767.53
  Q 293.92 774.69 291.75 792.35
  Q 287.92 823.44 288.79 854.22
  C 289.08 864.39 290.47 875.04 291.43 885.23
  C 292.47 896.20 293.39 900.96 295.04 912.21
  Q 295.40 914.68 296.04 916.85
  C 297.17 920.70 297.48 924.41 298.55 928.47
  Q 307.72 962.98 318.36 987.69
  Q 325.46 1004.18 337.15 1025.57
  Q 345.38 1040.63 356.05 1055.66
  Q 367.96 1072.44 377.60 1083.92
  Q 407.84 1119.95 448.47 1148.76
  Q 454.09 1152.75 469.71 1162.66
  Q 481.97 1170.44 491.63 1175.10
  Q 524.83 1191.10 552.70 1199.51
  Q 583.68 1208.87 615.50 1212.41
  Q 625.19 1213.49 641.78 1214.86
  C 661.46 1216.48 677.93 1214.52 695.75 1213.23
  Q 704.33 1212.60 711.02 1211.37
  Q 711.89 1211.20 717.09 1210.42
  Q 744.81 1206.20 777.10 1195.77
  Q 795.44 1189.85 804.93 1185.40
  Q 816.70 1179.88 825.06 1175.80
  Q 843.08 1167.02 860.63 1155.88
  Q 877.90 1144.92 900.31 1126.23
  Q 913.45 1115.28 926.84 1100.87
  Q 942.89 1083.61 950.88 1073.13
  Q 968.14 1050.49 977.21 1035.25
  Q 1008.14 983.27 1022.07 923.81
  C 1027.45 900.83 1030.06 878.40 1031.22 855.50
  Q 1032.84 823.76 1028.39 791.52
  C 1025.60 771.27 1021.43 750.30 1014.79 729.71
  C 1008.88 711.39 1002.33 693.53 993.73 676.77
  Q 982.36 654.62 968.42 632.75
  A 1.57 1.57 0.0 0 0 965.58 633.20
  Z
  M 800.70 723.23
  C 802.90 724.24 805.67 727.09 808.40 728.68
  Q 816.86 733.60 826.23 740.36
  Q 848.75 756.61 851.31 758.48
  C 854.55 760.85 859.51 762.81 861.45 757.96
  Q 862.25 755.96 861.58 754.17
  C 859.59 748.85 858.68 743.99 856.85 738.16
  Q 851.72 721.79 847.57 705.25
  Q 845.70 697.83 844.15 692.86
  A 2.42 2.42 0.0 0 1 844.99 690.21
  Q 880.07 663.29 895.67 651.13
  Q 896.64 650.37 897.05 650.08
  C 900.22 647.86 901.50 643.86 897.00 641.95
  Q 895.05 641.13 890.73 641.08
  C 869.17 640.85 849.41 641.07 828.75 639.85
  A 1.82 1.81 -8.0 0 1 827.14 638.64
  Q 810.41 591.37 806.20 579.42
  C 805.56 577.60 804.22 574.68 802.85 573.85
  C 798.70 571.31 796.65 577.19 795.46 580.47
  Q 783.51 613.17 773.83 639.11
  A 1.87 1.86 -80.5 0 1 772.13 640.33
  C 750.47 640.92 728.55 640.11 707.25 640.89
  C 705.09 640.96 702.47 641.65 702.02 644.20
  Q 701.28 648.39 704.62 650.89
  Q 730.00 669.94 751.89 687.11
  Q 752.41 687.51 755.55 689.69
  A 1.83 1.81 -63.3 0 1 756.23 691.78
  Q 755.07 695.19 753.68 699.15
  Q 752.81 701.60 745.84 725.97
  C 743.43 734.38 739.51 745.53 737.72 754.24
  C 736.00 762.55 742.18 761.61 747.09 758.35
  Q 769.91 743.18 792.78 727.29
  Q 796.90 724.43 798.92 723.30
  A 1.96 1.95 42.6 0 1 800.70 723.23
  Z
  M 745.60 800.49
  L 745.60 1107.76
  A 1.32 1.32 0.0 0 0 746.95 1109.08
  Q 749.10 1109.02 751.30 1108.32
  Q 780.57 1098.98 804.82 1084.06
  Q 815.25 1077.64 825.83 1070.49
  C 833.22 1065.49 839.07 1059.96 846.76 1053.51
  C 849.41 1051.28 848.90 1045.12 848.89 1040.78
  Q 848.75 940.44 848.71 854.00
  C 848.69 833.80 849.19 817.03 848.66 799.92
  A 4.13 4.13 0.0 0 0 846.75 796.57
  Q 828.79 785.14 800.91 768.19
  C 798.91 766.97 797.60 767.25 795.74 768.46
  Q 770.98 784.53 746.61 798.72
  A 2.06 2.04 75.0 0 0 745.60 800.49
  Z
  M 613.53 818.22
  L 590.49 827.89
  A 2.64 2.63 -11.4 0 0 588.87 830.32
  L 589.06 1065.79
  L 588.76 1116.04
  A 1.12 1.12 0.0 0 0 589.66 1117.14
  Q 624.30 1123.97 659.75 1123.45
  C 669.68 1123.30 681.85 1121.99 691.59 1121.06
  A 1.20 1.19 -3.2 0 0 692.67 1119.86
  Q 692.51 1098.97 692.53 1088.00
  Q 692.75 976.16 692.59 868.50
  Q 692.54 841.02 692.81 819.25
  C 692.96 806.69 692.50 789.53 692.37 779.32
  Q 692.35 777.25 691.86 776.37
  A 1.54 1.54 0.0 0 0 689.84 775.74
  C 686.10 777.57 682.20 780.98 678.63 783.29
  Q 647.48 803.40 613.53 818.22
  Z
  M 537.06 1101.05
  L 537.06 904.18
  A 1.59 1.58 -9.9 0 0 534.94 902.69
  Q 534.61 902.81 534.01 903.07
  Q 509.75 913.44 490.87 918.85
  Q 467.48 925.55 458.71 927.64
  Q 445.29 930.83 435.48 932.84
  A 1.10 1.09 84.4 0 0 434.61 933.90
  Q 434.02 983.11 434.78 1023.44
  C 434.83 1026.21 435.23 1027.66 436.87 1029.87
  Q 441.12 1035.59 447.64 1042.11
  Q 460.37 1054.84 473.89 1065.84
  C 480.36 1071.10 489.32 1076.97 496.79 1082.10
  Q 502.54 1086.05 514.61 1092.45
  C 521.52 1096.12 528.56 1098.62 535.59 1101.98
  A 1.03 1.03 0.0 0 0 537.06 1101.05
  Z
  M 337.90 1319.40
  A 0.93 0.93 0.0 0 0 338.58 1318.19
  C 336.34 1311.74 334.54 1305.98 331.23 1300.14
  C 322.64 1285.02 308.06 1275.68 290.86 1272.89
  Q 282.42 1271.52 277.00 1271.45
  Q 266.06 1271.30 253.41 1275.21
  C 236.80 1280.35 224.57 1291.35 215.93 1306.53
  Q 210.09 1316.81 207.76 1331.53
  Q 204.55 1351.89 208.82 1370.95
  C 212.38 1386.84 222.32 1402.73 235.86 1412.20
  C 251.75 1423.31 274.15 1426.01 293.03 1421.99
  Q 306.61 1419.09 316.62 1411.58
  C 327.91 1403.12 333.88 1392.45 338.68 1379.49
  A 1.80 1.80 0.0 0 0 337.15 1377.07
  L 312.37 1374.89
  A 1.26 1.25 -75.8 0 0 311.09 1375.66
  Q 303.13 1394.55 283.16 1397.88
  C 272.40 1399.67 261.14 1396.39 252.37 1390.14
  C 247.20 1386.47 242.73 1380.20 240.29 1374.70
  Q 233.82 1360.10 235.35 1343.25
  Q 236.16 1334.27 237.23 1330.20
  C 241.33 1314.60 251.51 1301.14 268.30 1298.26
  Q 274.02 1297.28 275.49 1297.27
  Q 301.64 1297.09 310.48 1320.60
  A 1.26 1.25 76.9 0 0 311.77 1321.41
  Q 318.25 1320.83 327.74 1320.49
  Q 333.87 1320.27 337.90 1319.40
  Z
  M 788.06 1419.42
  L 752.46 1363.18
  A 0.62 0.62 0.0 0 1 752.81 1362.25
  C 771.96 1356.89 782.66 1342.92 783.06 1323.31
  Q 783.18 1317.43 782.82 1314.75
  Q 779.84 1292.20 760.12 1282.46
  Q 749.87 1277.39 741.18 1276.94
  Q 733.72 1276.56 728.00 1276.53
  Q 725.67 1276.52 679.25 1276.82
  Q 676.65 1276.83 675.60 1276.89
  A 0.73 0.73 0.0 0 0 674.91 1277.67
  Q 675.53 1287.20 675.27 1298.70
  C 674.93 1314.66 675.44 1332.57 675.23 1346.60
  Q 674.98 1363.71 675.12 1373.40
  Q 675.34 1387.92 675.06 1418.92
  A 1.73 1.73 0.0 0 0 676.79 1420.67
  L 701.21 1420.67
  A 1.20 1.19 89.8 0 0 702.40 1419.46
  Q 702.16 1385.96 702.19 1371.50
  Q 702.19 1368.67 702.51 1367.26
  A 1.56 1.56 0.0 0 1 704.03 1366.05
  L 722.86 1366.05
  A 3.13 3.11 -15.7 0 1 725.52 1367.53
  Q 741.17 1393.09 755.43 1419.29
  A 2.76 2.74 -14.2 0 0 757.85 1420.72
  L 787.34 1420.72
  A 0.85 0.85 0.0 0 0 788.06 1419.42
  Z
  M 381.92 1277.86
  A 1.02 1.02 0.0 0 0 380.90 1276.84
  L 356.82 1276.84
  A 1.02 1.02 0.0 0 0 355.80 1277.86
  L 355.80 1419.58
  A 1.02 1.02 0.0 0 0 356.82 1420.60
  L 380.90 1420.60
  A 1.02 1.02 0.0 0 0 381.92 1419.58
  L 381.92 1277.86
  Z
  M 429.0342 1283.5466
  A 6.91 6.91 0.0 0 0 422.0522 1276.7093
  L 408.4130 1276.8521
  A 6.91 6.91 0.0 0 0 401.5757 1283.8341
  L 401.7058 1296.2534
  A 6.91 6.91 0.0 0 0 408.6878 1303.0907
  L 422.3270 1302.9479
  A 6.91 6.91 0.0 0 0 429.1643 1295.9659
  L 429.0342 1283.5466
  Z
  M 1055.12 1355.89
  A 1.14 1.14 0.0 0 1 1053.62 1354.70
  Q 1054.40 1347.09 1054.32 1339.50
  Q 1054.01 1306.84 1053.91 1277.71
  A 0.94 0.94 0.0 0 0 1052.97 1276.77
  L 1029.32 1276.77
  A 1.25 1.24 -90.0 0 0 1028.08 1278.02
  L 1028.08 1419.11
  A 1.41 1.40 90.0 0 0 1029.48 1420.52
  L 1053.51 1420.52
  A 1.00 1.00 0.0 0 0 1054.51 1419.52
  L 1054.51 1388.12
  A 3.26 3.25 -24.0 0 1 1055.35 1385.94
  L 1062.07 1378.49
  A 1.97 1.97 0.0 0 1 1065.21 1378.79
  C 1068.99 1385.01 1073.26 1390.53 1077.53 1396.93
  Q 1086.28 1410.03 1091.52 1418.44
  C 1092.80 1420.50 1094.17 1420.91 1096.52 1420.88
  Q 1111.58 1420.67 1122.16 1420.84
  Q 1123.09 1420.85 1123.37 1419.83
  Q 1123.48 1419.42 1123.29 1418.84
  C 1122.80 1417.34 1120.55 1415.36 1120.19 1414.83
  C 1112.41 1403.58 1104.77 1393.27 1096.21 1380.52
  Q 1089.58 1370.65 1082.14 1360.49
  A 1.42 1.42 0.0 0 1 1082.24 1358.69
  Q 1094.63 1345.24 1106.47 1331.49
  C 1110.57 1326.74 1115.54 1322.01 1118.65 1318.48
  A 1.27 1.27 0.0 0 0 1118.53 1316.68
  Q 1118.00 1316.22 1116.99 1316.25
  Q 1102.32 1316.73 1092.02 1316.96
  Q 1089.55 1317.02 1088.39 1318.40
  C 1078.08 1330.69 1065.12 1343.76 1056.93 1354.42
  Q 1056.06 1355.57 1055.12 1355.89
  Z
  M 584.41 1420.13
  L 584.41 1387.41
  A 2.80 2.79 77.6 0 1 586.03 1384.87
  Q 589.71 1383.17 592.15 1378.90
  A 1.64 1.64 0.0 0 1 594.93 1378.78
  L 622.65 1419.09
  A 3.61 3.59 -17.1 0 0 625.62 1420.65
  L 652.45 1420.66
  A 1.46 1.45 83.0 0 0 653.86 1418.85
  Q 653.85 1418.79 653.49 1418.36
  Q 649.52 1413.54 648.41 1411.92
  Q 633.17 1389.62 617.62 1367.94
  Q 616.06 1365.76 612.61 1360.55
  A 1.25 1.23 40.5 0 1 612.51 1359.34
  Q 613.12 1358.00 614.26 1356.77
  Q 624.30 1345.89 640.56 1327.56
  C 643.00 1324.82 646.45 1321.75 648.79 1318.76
  A 1.24 1.24 0.0 0 0 648.03 1316.78
  Q 646.69 1316.54 644.74 1316.57
  Q 635.17 1316.73 622.51 1316.80
  Q 620.14 1316.82 619.04 1318.03
  Q 600.00 1338.94 593.68 1346.18
  Q 590.29 1350.07 587.28 1354.02
  Q 586.30 1355.32 585.05 1355.74
  A 0.59 0.58 -9.6 0 1 584.27 1355.19
  L 584.27 1278.42
  A 1.38 1.38 0.0 0 0 582.89 1277.04
  L 559.22 1277.04
  A 1.20 1.19 0.0 0 0 558.02 1278.23
  L 558.02 1419.48
  A 1.24 1.24 0.0 0 0 559.26 1420.72
  L 583.81 1420.72
  A 0.60 0.59 -0.0 0 0 584.41 1420.13
  Z
  M 867.43 1409.27
  L 867.43 1418.34
  A 2.18 2.17 -90.0 0 0 869.60 1420.52
  L 891.63 1420.52
  A 1.52 1.51 -4.5 0 0 893.13 1418.77
  C 892.43 1414.47 891.76 1411.19 891.76 1406.74
  Q 891.74 1382.32 891.32 1360.01
  C 891.20 1353.54 891.48 1347.40 890.41 1342.79
  Q 887.50 1330.26 878.74 1322.98
  Q 870.74 1316.33 857.32 1314.32
  Q 845.81 1312.59 833.06 1315.40
  Q 820.55 1318.15 813.24 1324.86
  Q 804.75 1332.65 801.83 1343.75
  A 1.70 1.70 0.0 0 0 803.32 1345.87
  L 823.73 1347.67
  A 1.58 1.58 0.0 0 0 825.35 1346.63
  Q 829.21 1335.76 840.97 1334.93
  C 854.65 1333.96 867.34 1336.09 866.42 1353.28
  C 866.24 1356.67 864.85 1355.96 862.09 1356.22
  Q 852.32 1357.13 837.01 1358.28
  Q 835.47 1358.40 824.29 1360.38
  C 818.84 1361.35 813.94 1363.84 810.00 1366.25
  C 800.66 1371.98 796.83 1382.50 797.39 1393.29
  C 798.06 1406.08 805.41 1415.74 817.25 1420.04
  Q 837.50 1427.39 855.56 1418.07
  C 860.20 1415.67 862.85 1412.88 865.95 1408.77
  A 0.82 0.82 0.0 0 1 867.43 1409.27
  Z
  M 914.12 1316.46
  A 0.84 0.84 0.0 0 0 913.27 1317.30
  L 913.27 1419.29
  A 1.18 1.18 0.0 0 0 914.45 1420.47
  L 938.24 1420.47
  A 0.80 0.80 0.0 0 0 939.04 1419.68
  Q 939.37 1365.33 939.36 1359.39
  C 939.34 1346.83 948.22 1336.64 961.05 1336.15
  Q 978.12 1335.51 982.29 1351.81
  Q 982.86 1354.06 982.85 1356.50
  Q 982.70 1374.90 982.83 1419.54
  A 1.37 1.36 89.8 0 0 984.19 1420.90
  L 1007.68 1420.90
  A 1.08 1.07 -89.7 0 0 1008.75 1419.83
  Q 1009.10 1383.92 1008.02 1349.26
  Q 1007.84 1343.75 1004.97 1335.70
  C 1001.59 1326.25 995.15 1320.26 986.45 1316.65
  Q 978.33 1313.28 966.57 1314.03
  Q 950.18 1315.07 940.68 1328.11
  A 1.26 1.24 -47.4 0 1 938.72 1328.21
  Q 938.49 1327.93 938.58 1327.24
  Q 938.99 1324.35 939.19 1321.50
  Q 939.40 1318.41 938.90 1317.58
  A 1.86 1.84 -15.0 0 0 937.33 1316.69
  L 914.12 1316.46
  Z
  M 541.88 1350.19
  C 542.20 1347.89 541.39 1345.42 540.60 1343.01
  Q 535.41 1327.14 520.71 1319.74
  C 498.83 1308.73 470.71 1313.58 455.39 1333.47
  C 449.97 1340.50 447.56 1348.25 445.88 1357.64
  Q 442.97 1373.92 447.46 1388.74
  Q 453.56 1408.85 472.32 1417.81
  Q 489.08 1425.82 506.83 1422.17
  C 525.20 1418.40 538.33 1406.69 542.52 1388.47
  Q 543.02 1386.30 540.60 1386.09
  Q 533.57 1385.48 519.24 1384.67
  A 1.64 1.63 -77.4 0 0 517.64 1385.69
  Q 511.69 1400.14 497.03 1400.62
  C 475.07 1401.33 468.94 1378.82 471.40 1361.57
  C 473.48 1346.99 481.00 1336.59 496.49 1336.15
  Q 508.41 1335.81 514.74 1345.51
  Q 516.31 1347.91 516.76 1350.57
  A 1.42 1.41 -5.8 0 0 518.20 1351.74
  L 541.01 1350.97
  A 0.91 0.90 -86.6 0 0 541.88 1350.19
  Z
  M 428.73 1317.68
  A 0.86 0.86 0.0 0 0 427.87 1316.82
  L 403.23 1316.82
  A 0.86 0.86 0.0 0 0 402.37 1317.68
  L 402.37 1419.82
  A 0.86 0.86 0.0 0 0 403.23 1420.68
  L 427.87 1420.68
  A 0.86 0.86 0.0 0 0 428.73 1419.82
  L 428.73 1317.68
  Z"
/>
<path fill="#0c233d" d="
  M 965.58 633.20
  A 1.57 1.57 0.0 0 1 968.42 632.75
  Q 982.36 654.62 993.73 676.77
  C 1002.33 693.53 1008.88 711.39 1014.79 729.71
  C 1021.43 750.30 1025.60 771.27 1028.39 791.52
  Q 1032.84 823.76 1031.22 855.50
  C 1030.06 878.40 1027.45 900.83 1022.07 923.81
  Q 1008.14 983.27 977.21 1035.25
  Q 968.14 1050.49 950.88 1073.13
  Q 942.89 1083.61 926.84 1100.87
  Q 913.45 1115.28 900.31 1126.23
  Q 877.90 1144.92 860.63 1155.88
  Q 843.08 1167.02 825.06 1175.80
  Q 816.70 1179.88 804.93 1185.40
  Q 795.44 1189.85 777.10 1195.77
  Q 744.81 1206.20 717.09 1210.42
  Q 711.89 1211.20 711.02 1211.37
  Q 704.33 1212.60 695.75 1213.23
  C 677.93 1214.52 661.46 1216.48 641.78 1214.86
  Q 625.19 1213.49 615.50 1212.41
  Q 583.68 1208.87 552.70 1199.51
  Q 524.83 1191.10 491.63 1175.10
  Q 481.97 1170.44 469.71 1162.66
  Q 454.09 1152.75 448.47 1148.76
  Q 407.84 1119.95 377.60 1083.92
  Q 367.96 1072.44 356.05 1055.66
  Q 345.38 1040.63 337.15 1025.57
  Q 325.46 1004.18 318.36 987.69
  Q 307.72 962.98 298.55 928.47
  C 297.48 924.41 297.17 920.70 296.04 916.85
  Q 295.40 914.68 295.04 912.21
  C 293.39 900.96 292.47 896.20 291.43 885.23
  C 290.47 875.04 289.08 864.39 288.79 854.22
  Q 287.92 823.44 291.75 792.35
  Q 293.92 774.69 295.29 767.53
  Q 306.09 711.11 333.14 661.68
  C 339.65 649.77 346.73 637.53 354.62 626.61
  C 361.50 617.10 365.08 611.77 370.69 605.27
  Q 388.21 584.98 393.55 579.53
  Q 414.77 557.89 441.27 538.63
  Q 456.08 527.87 472.87 518.39
  Q 492.05 507.55 506.29 501.30
  Q 521.54 494.61 545.14 486.56
  C 549.26 485.16 553.38 484.45 557.16 483.11
  Q 561.40 481.60 564.70 481.01
  C 568.06 480.41 570.98 479.23 574.81 478.44
  Q 600.18 473.21 610.28 472.15
  Q 634.53 469.60 650.75 469.01
  Q 662.42 468.58 682.03 469.42
  Q 686.35 469.61 704.22 471.47
  Q 716.50 472.74 726.26 474.53
  C 743.41 477.68 758.54 481.16 774.18 486.07
  C 778.79 487.52 783.14 489.40 788.41 491.08
  Q 796.36 493.61 809.21 499.06
  Q 851.17 516.87 888.07 545.83
  Q 913.22 565.57 932.89 587.10
  C 940.26 595.17 943.92 600.30 951.91 610.37
  Q 952.18 610.72 952.31 611.19
  A 0.74 0.74 0.0 0 1 951.56 612.13
  L 893.45 609.25
  A 7.00 6.96 -25.9 0 1 889.78 607.99
  Q 887.73 606.56 885.65 604.39
  C 868.16 586.10 848.42 571.67 825.53 557.47
  C 811.94 549.04 797.57 542.85 782.87 536.87
  Q 751.23 523.98 717.49 518.57
  Q 715.04 518.18 706.15 516.74
  Q 702.73 516.19 694.77 515.24
  Q 689.24 514.59 680.01 514.07
  Q 618.43 510.64 561.25 528.48
  Q 556.55 529.95 547.72 533.13
  C 541.29 535.44 535.86 537.10 529.82 539.84
  Q 511.07 548.33 502.09 553.37
  Q 496.79 556.35 480.66 566.69
  C 419.08 606.16 373.16 666.40 350.33 735.56
  C 347.02 745.58 343.23 757.15 340.99 767.79
  Q 333.59 802.91 333.14 838.01
  Q 332.92 855.08 334.66 869.43
  C 335.81 878.91 336.21 885.28 337.66 893.72
  C 340.21 908.57 342.93 922.01 347.89 937.54
  Q 352.52 952.04 357.43 964.43
  Q 375.56 1010.24 406.54 1048.73
  Q 426.48 1073.49 447.15 1091.61
  Q 459.52 1102.45 475.83 1113.79
  C 501.20 1131.43 527.99 1144.34 557.37 1154.39
  Q 568.52 1158.20 577.87 1160.44
  Q 592.93 1164.04 598.71 1165.23
  Q 609.05 1167.36 630.25 1169.34
  Q 669.64 1172.99 709.07 1167.08
  Q 714.46 1166.27 734.76 1161.72
  Q 743.37 1159.79 759.77 1154.66
  Q 774.00 1150.22 784.25 1145.93
  Q 806.59 1136.58 828.92 1123.42
  C 845.37 1113.74 861.78 1100.49 875.44 1088.94
  Q 886.10 1079.93 897.51 1067.25
  Q 922.92 1039.03 939.04 1011.81
  Q 948.51 995.81 961.08 967.45
  Q 963.04 963.04 965.38 956.21
  Q 967.59 949.76 969.27 944.80
  Q 981.02 910.04 984.49 872.00
  Q 985.00 866.32 985.74 852.17
  Q 986.35 840.39 986.09 832.31
  Q 984.84 792.87 974.80 755.00
  Q 968.20 730.08 958.41 708.32
  Q 950.61 691.00 941.64 674.62
  Q 940.65 672.79 942.09 671.09
  Q 953.96 657.07 960.72 645.06
  C 962.89 641.21 964.47 637.43 965.58 633.20
  Z"
/>
<path fill="#e4a827" d="
  M 800.70 723.23
  A 1.96 1.95 42.6 0 0 798.92 723.30
  Q 796.90 724.43 792.78 727.29
  Q 769.91 743.18 747.09 758.35
  C 742.18 761.61 736.00 762.55 737.72 754.24
  C 739.51 745.53 743.43 734.38 745.84 725.97
  Q 752.81 701.60 753.68 699.15
  Q 755.07 695.19 756.23 691.78
  A 1.83 1.81 -63.3 0 0 755.55 689.69
  Q 752.41 687.51 751.89 687.11
  Q 730.00 669.94 704.62 650.89
  Q 701.28 648.39 702.02 644.20
  C 702.47 641.65 705.09 640.96 707.25 640.89
  C 728.55 640.11 750.47 640.92 772.13 640.33
  A 1.87 1.86 -80.5 0 0 773.83 639.11
  Q 783.51 613.17 795.46 580.47
  C 796.65 577.19 798.70 571.31 802.85 573.85
  C 804.22 574.68 805.56 577.60 806.20 579.42
  Q 810.41 591.37 827.14 638.64
  A 1.82 1.81 -8.0 0 0 828.75 639.85
  C 849.41 641.07 869.17 640.85 890.73 641.08
  Q 895.05 641.13 897.00 641.95
  C 901.50 643.86 900.22 647.86 897.05 650.08
  Q 896.64 650.37 895.67 651.13
  Q 880.07 663.29 844.99 690.21
  A 2.42 2.42 0.0 0 0 844.15 692.86
  Q 845.70 697.83 847.57 705.25
  Q 851.72 721.79 856.85 738.16
  C 858.68 743.99 859.59 748.85 861.58 754.17
  Q 862.25 755.96 861.45 757.96
  C 859.51 762.81 854.55 760.85 851.31 758.48
  Q 848.75 756.61 826.23 740.36
  Q 816.86 733.60 808.40 728.68
  C 805.67 727.09 802.90 724.24 800.70 723.23
  Z"
/>
<path fill="#0164a5" d="
  M 745.60 800.49
  A 2.06 2.04 75.0 0 1 746.61 798.72
  Q 770.98 784.53 795.74 768.46
  C 797.60 767.25 798.91 766.97 800.91 768.19
  Q 828.79 785.14 846.75 796.57
  A 4.13 4.13 0.0 0 1 848.66 799.92
  C 849.19 817.03 848.69 833.80 848.71 854.00
  Q 848.75 940.44 848.89 1040.78
  C 848.90 1045.12 849.41 1051.28 846.76 1053.51
  C 839.07 1059.96 833.22 1065.49 825.83 1070.49
  Q 815.25 1077.64 804.82 1084.06
  Q 780.57 1098.98 751.30 1108.32
  Q 749.10 1109.02 746.95 1109.08
  A 1.32 1.32 0.0 0 1 745.60 1107.76
  L 745.60 800.49
  Z"
/>
<path fill="#0c233d" d="
  M 589.06 1065.79
  Q 591.68 1072.50 591.38 1079.20
  C 591.03 1087.16 591.00 1092.85 592.02 1099.95
  C 593.03 1106.95 592.67 1113.27 599.85 1115.16
  Q 605.41 1116.62 622.66 1119.44
  Q 632.93 1121.11 638.50 1121.02
  Q 655.20 1120.76 657.70 1120.88
  Q 657.99 1120.90 678.75 1118.39
  Q 682.13 1117.98 684.64 1116.67
  C 688.05 1114.89 688.82 1110.66 689.18 1107.02
  C 689.79 1100.95 689.46 1094.88 690.05 1088.31
  Q 690.76 1080.29 690.55 1074.55
  Q 688.79 1026.27 689.01 1015.54
  C 689.26 1003.42 689.71 994.43 689.68 984.12
  C 689.59 960.48 690.23 937.04 689.49 912.93
  Q 688.89 893.19 689.14 887.74
  Q 690.44 859.20 689.56 839.43
  Q 688.43 813.88 688.68 805.53
  Q 688.92 797.58 689.17 787.48
  A 1.61 1.58 31.7 0 0 688.97 786.67
  C 686.20 781.69 682.10 784.02 678.39 786.41
  Q 667.88 793.17 660.28 798.85
  C 655.66 802.31 650.50 804.57 646.14 806.95
  Q 642.94 808.69 637.46 810.56
  Q 631.48 812.59 628.75 814.19
  Q 617.26 820.91 614.10 822.09
  C 604.11 825.81 598.47 827.64 593.16 830.57
  A 0.07 0.06 -28.5 0 1 593.07 830.55
  L 592.92 830.34
  A 0.26 0.25 56.6 0 1 592.99 829.98
  Q 599.51 825.65 602.02 824.67
  Q 609.76 821.63 613.53 818.22
  Q 647.48 803.40 678.63 783.29
  C 682.20 780.98 686.10 777.57 689.84 775.74
  A 1.54 1.54 0.0 0 1 691.86 776.37
  Q 692.35 777.25 692.37 779.32
  C 692.50 789.53 692.96 806.69 692.81 819.25
  Q 692.54 841.02 692.59 868.50
  Q 692.75 976.16 692.53 1088.00
  Q 692.51 1098.97 692.67 1119.86
  A 1.20 1.19 -3.2 0 1 691.59 1121.06
  C 681.85 1121.99 669.68 1123.30 659.75 1123.45
  Q 624.30 1123.97 589.66 1117.14
  A 1.12 1.12 0.0 0 1 588.76 1116.04
  L 589.06 1065.79
  Z"
/>
<path fill="#043664" d="
  M 589.06 1065.79
  L 588.87 830.32
  A 2.64 2.63 -11.4 0 1 590.49 827.89
  L 613.53 818.22
  Q 609.76 821.63 602.02 824.67
  Q 599.51 825.65 592.99 829.98
  A 0.26 0.25 56.6 0 0 592.92 830.34
  L 593.07 830.55
  A 0.07 0.06 -28.5 0 0 593.16 830.57
  C 598.47 827.64 604.11 825.81 614.10 822.09
  Q 617.26 820.91 628.75 814.19
  Q 631.48 812.59 637.46 810.56
  Q 642.94 808.69 646.14 806.95
  C 650.50 804.57 655.66 802.31 660.28 798.85
  Q 667.88 793.17 678.39 786.41
  C 682.10 784.02 686.20 781.69 688.97 786.67
  A 1.61 1.58 31.7 0 1 689.17 787.48
  Q 688.92 797.58 688.68 805.53
  Q 688.43 813.88 689.56 839.43
  Q 690.44 859.20 689.14 887.74
  Q 688.89 893.19 689.49 912.93
  C 690.23 937.04 689.59 960.48 689.68 984.12
  C 689.71 994.43 689.26 1003.42 689.01 1015.54
  Q 688.79 1026.27 690.55 1074.55
  Q 690.76 1080.29 690.05 1088.31
  C 689.46 1094.88 689.79 1100.95 689.18 1107.02
  C 688.82 1110.66 688.05 1114.89 684.64 1116.67
  Q 682.13 1117.98 678.75 1118.39
  Q 657.99 1120.90 657.70 1120.88
  Q 655.20 1120.76 638.50 1121.02
  Q 632.93 1121.11 622.66 1119.44
  Q 605.41 1116.62 599.85 1115.16
  C 592.67 1113.27 593.03 1106.95 592.02 1099.95
  C 591.00 1092.85 591.03 1087.16 591.38 1079.20
  Q 591.68 1072.50 589.06 1065.79
  Z"
/>
<path fill="#0c233d" d="
  M 537.06 1101.05
  A 1.03 1.03 0.0 0 1 535.59 1101.98
  C 528.56 1098.62 521.52 1096.12 514.61 1092.45
  Q 502.54 1086.05 496.79 1082.10
  C 489.32 1076.97 480.36 1071.10 473.89 1065.84
  Q 460.37 1054.84 447.64 1042.11
  Q 441.12 1035.59 436.87 1029.87
  C 435.23 1027.66 434.83 1026.21 434.78 1023.44
  Q 434.02 983.11 434.61 933.90
  A 1.10 1.09 84.4 0 1 435.48 932.84
  Q 445.29 930.83 458.71 927.64
  Q 467.48 925.55 490.87 918.85
  Q 509.75 913.44 534.01 903.07
  Q 534.61 902.81 534.94 902.69
  A 1.59 1.58 -9.9 0 1 537.06 904.18
  L 537.06 1101.05
  Z"
/>
<path fill="#0c233d" d="
  M 337.90 1319.40
  Q 333.87 1320.27 327.74 1320.49
  Q 318.25 1320.83 311.77 1321.41
  A 1.26 1.25 76.9 0 1 310.48 1320.60
  Q 301.64 1297.09 275.49 1297.27
  Q 274.02 1297.28 268.30 1298.26
  C 251.51 1301.14 241.33 1314.60 237.23 1330.20
  Q 236.16 1334.27 235.35 1343.25
  Q 233.82 1360.10 240.29 1374.70
  C 242.73 1380.20 247.20 1386.47 252.37 1390.14
  C 261.14 1396.39 272.40 1399.67 283.16 1397.88
  Q 303.13 1394.55 311.09 1375.66
  A 1.26 1.25 -75.8 0 1 312.37 1374.89
  L 337.15 1377.07
  A 1.80 1.80 0.0 0 1 338.68 1379.49
  C 333.88 1392.45 327.91 1403.12 316.62 1411.58
  Q 306.61 1419.09 293.03 1421.99
  C 274.15 1426.01 251.75 1423.31 235.86 1412.20
  C 222.32 1402.73 212.38 1386.84 208.82 1370.95
  Q 204.55 1351.89 207.76 1331.53
  Q 210.09 1316.81 215.93 1306.53
  C 224.57 1291.35 236.80 1280.35 253.41 1275.21
  Q 266.06 1271.30 277.00 1271.45
  Q 282.42 1271.52 290.86 1272.89
  C 308.06 1275.68 322.64 1285.02 331.23 1300.14
  C 334.54 1305.98 336.34 1311.74 338.58 1318.19
  A 0.93 0.93 0.0 0 1 337.90 1319.40
  Z"
/>
<path fill="#0a59dc" d="
  M 788.06 1419.42
  A 0.85 0.85 0.0 0 1 787.34 1420.72
  L 757.85 1420.72
  A 2.76 2.74 -14.2 0 1 755.43 1419.29
  Q 741.17 1393.09 725.52 1367.53
  A 3.13 3.11 -15.7 0 0 722.86 1366.05
  L 704.03 1366.05
  A 1.56 1.56 0.0 0 0 702.51 1367.26
  Q 702.19 1368.67 702.19 1371.50
  Q 702.16 1385.96 702.40 1419.46
  A 1.20 1.19 89.8 0 1 701.21 1420.67
  L 676.79 1420.67
  A 1.73 1.73 0.0 0 1 675.06 1418.92
  Q 675.34 1387.92 675.12 1373.40
  Q 674.98 1363.71 675.23 1346.60
  C 675.44 1332.57 674.93 1314.66 675.27 1298.70
  Q 675.53 1287.20 674.91 1277.67
  A 0.73 0.73 0.0 0 1 675.60 1276.89
  Q 676.65 1276.83 679.25 1276.82
  Q 725.67 1276.52 728.00 1276.53
  Q 733.72 1276.56 741.18 1276.94
  Q 749.87 1277.39 760.12 1282.46
  Q 779.84 1292.20 782.82 1314.75
  Q 783.18 1317.43 783.06 1323.31
  C 782.66 1342.92 771.96 1356.89 752.81 1362.25
  A 0.62 0.62 0.0 0 0 752.46 1363.18
  L 788.06 1419.42
  Z
  M 702.47 1302.31
  L 702.53 1341.09
  A 1.68 1.68 0.0 0 0 704.22 1342.76
  L 733.46 1342.71
  A 22.14 19.52 -0.1 0 0 755.56 1323.15
  L 755.56 1320.05
  A 22.14 19.52 -0.1 0 0 733.38 1300.57
  L 704.14 1300.62
  A 1.68 1.68 0.0 0 0 702.47 1302.31
  Z"
/>
<rect fill="#0c233d" x="355.80" y="1276.84" width="26.12" height="143.76" rx="1.02"/>
<rect fill="#0c233d" x="-13.73" y="-13.12" transform="translate(415.37,1289.90) rotate(-0.6)" width="27.46" height="26.24" rx="6.91"/>
<path fill="#0a59dc" d="
  M 1055.12 1355.89
  Q 1056.06 1355.57 1056.93 1354.42
  C 1065.12 1343.76 1078.08 1330.69 1088.39 1318.40
  Q 1089.55 1317.02 1092.02 1316.96
  Q 1102.32 1316.73 1116.99 1316.25
  Q 1118.00 1316.22 1118.53 1316.68
  A 1.27 1.27 0.0 0 1 1118.65 1318.48
  C 1115.54 1322.01 1110.57 1326.74 1106.47 1331.49
  Q 1094.63 1345.24 1082.24 1358.69
  A 1.42 1.42 0.0 0 0 1082.14 1360.49
  Q 1089.58 1370.65 1096.21 1380.52
  C 1104.77 1393.27 1112.41 1403.58 1120.19 1414.83
  C 1120.55 1415.36 1122.80 1417.34 1123.29 1418.84
  Q 1123.48 1419.42 1123.37 1419.83
  Q 1123.09 1420.85 1122.16 1420.84
  Q 1111.58 1420.67 1096.52 1420.88
  C 1094.17 1420.91 1092.80 1420.50 1091.52 1418.44
  Q 1086.28 1410.03 1077.53 1396.93
  C 1073.26 1390.53 1068.99 1385.01 1065.21 1378.79
  A 1.97 1.97 0.0 0 0 1062.07 1378.49
  L 1055.35 1385.94
  A 3.26 3.25 -24.0 0 0 1054.51 1388.12
  L 1054.51 1419.52
  A 1.00 1.00 0.0 0 1 1053.51 1420.52
  L 1029.48 1420.52
  A 1.41 1.40 90.0 0 1 1028.08 1419.11
  L 1028.08 1278.02
  A 1.25 1.24 -90.0 0 1 1029.32 1276.77
  L 1052.97 1276.77
  A 0.94 0.94 0.0 0 1 1053.91 1277.71
  Q 1054.01 1306.84 1054.32 1339.50
  Q 1054.40 1347.09 1053.62 1354.70
  A 1.14 1.14 0.0 0 0 1055.12 1355.89
  Z"
/>
<path fill="#0c233d" d="
  M 584.41 1420.13
  A 0.60 0.59 0.0 0 1 583.81 1420.72
  L 559.26 1420.72
  A 1.24 1.24 0.0 0 1 558.02 1419.48
  L 558.02 1278.23
  A 1.20 1.19 0.0 0 1 559.22 1277.04
  L 582.89 1277.04
  A 1.38 1.38 0.0 0 1 584.27 1278.42
  L 584.27 1355.19
  A 0.59 0.58 -9.6 0 0 585.05 1355.74
  Q 586.30 1355.32 587.28 1354.02
  Q 590.29 1350.07 593.68 1346.18
  Q 600.00 1338.94 619.04 1318.03
  Q 620.14 1316.82 622.51 1316.80
  Q 635.17 1316.73 644.74 1316.57
  Q 646.69 1316.54 648.03 1316.78
  A 1.24 1.24 0.0 0 1 648.79 1318.76
  C 646.45 1321.75 643.00 1324.82 640.56 1327.56
  Q 624.30 1345.89 614.26 1356.77
  Q 613.12 1358.00 612.51 1359.34
  A 1.25 1.23 40.5 0 0 612.61 1360.55
  Q 616.06 1365.76 617.62 1367.94
  Q 633.17 1389.62 648.41 1411.92
  Q 649.52 1413.54 653.49 1418.36
  Q 653.85 1418.79 653.86 1418.85
  A 1.46 1.45 83.0 0 1 652.45 1420.66
  L 625.62 1420.65
  A 3.61 3.59 -17.1 0 1 622.65 1419.09
  L 594.93 1378.78
  A 1.64 1.64 0.0 0 0 592.15 1378.90
  Q 589.71 1383.17 586.03 1384.87
  A 2.80 2.79 77.6 0 0 584.41 1387.41
  L 584.41 1420.13
  Z"
/>
<path fill="#fffffe" d="
  M 702.47 1302.31
  A 1.68 1.68 0.0 0 1 704.14 1300.62
  L 733.38 1300.57
  A 22.14 19.52 -0.1 0 1 755.56 1320.05
  L 755.56 1323.15
  A 22.14 19.52 -0.1 0 1 733.46 1342.71
  L 704.22 1342.76
  A 1.68 1.68 0.0 0 1 702.53 1341.09
  L 702.47 1302.31
  Z"
/>
<path fill="#0a59dc" d="
  M 867.43 1409.27
  A 0.82 0.82 0.0 0 0 865.95 1408.77
  C 862.85 1412.88 860.20 1415.67 855.56 1418.07
  Q 837.50 1427.39 817.25 1420.04
  C 805.41 1415.74 798.06 1406.08 797.39 1393.29
  C 796.83 1382.50 800.66 1371.98 810.00 1366.25
  C 813.94 1363.84 818.84 1361.35 824.29 1360.38
  Q 835.47 1358.40 837.01 1358.28
  Q 852.32 1357.13 862.09 1356.22
  C 864.85 1355.96 866.24 1356.67 866.42 1353.28
  C 867.34 1336.09 854.65 1333.96 840.97 1334.93
  Q 829.21 1335.76 825.35 1346.63
  A 1.58 1.58 0.0 0 1 823.73 1347.67
  L 803.32 1345.87
  A 1.70 1.70 0.0 0 1 801.83 1343.75
  Q 804.75 1332.65 813.24 1324.86
  Q 820.55 1318.15 833.06 1315.40
  Q 845.81 1312.59 857.32 1314.32
  Q 870.74 1316.33 878.74 1322.98
  Q 887.50 1330.26 890.41 1342.79
  C 891.48 1347.40 891.20 1353.54 891.32 1360.01
  Q 891.74 1382.32 891.76 1406.74
  C 891.76 1411.19 892.43 1414.47 893.13 1418.77
  A 1.52 1.51 -4.5 0 1 891.63 1420.52
  L 869.60 1420.52
  A 2.18 2.17 -90.0 0 1 867.43 1418.34
  L 867.43 1409.27
  Z
  M 866.85 1372.90
  A 0.57 0.56 -2.8 0 0 866.23 1372.34
  C 855.19 1373.33 844.05 1374.01 833.91 1377.37
  C 825.04 1380.31 820.75 1387.04 824.75 1396.12
  A 3.57 3.49 -80.8 0 0 825.56 1397.27
  C 830.91 1402.32 836.82 1402.80 843.85 1402.40
  C 854.86 1401.78 865.41 1394.46 866.47 1382.80
  Q 866.92 1377.95 866.85 1372.90
  Z"
/>
<path fill="#0a59dc" d="
  M 914.12 1316.46
  L 937.33 1316.69
  A 1.86 1.84 -15.0 0 1 938.90 1317.58
  Q 939.40 1318.41 939.19 1321.50
  Q 938.99 1324.35 938.58 1327.24
  Q 938.49 1327.93 938.72 1328.21
  A 1.26 1.24 -47.4 0 0 940.68 1328.11
  Q 950.18 1315.07 966.57 1314.03
  Q 978.33 1313.28 986.45 1316.65
  C 995.15 1320.26 1001.59 1326.25 1004.97 1335.70
  Q 1007.84 1343.75 1008.02 1349.26
  Q 1009.10 1383.92 1008.75 1419.83
  A 1.08 1.07 -89.7 0 1 1007.68 1420.90
  L 984.19 1420.90
  A 1.37 1.36 89.8 0 1 982.83 1419.54
  Q 982.70 1374.90 982.85 1356.50
  Q 982.86 1354.06 982.29 1351.81
  Q 978.12 1335.51 961.05 1336.15
  C 948.22 1336.64 939.34 1346.83 939.36 1359.39
  Q 939.37 1365.33 939.04 1419.68
  A 0.80 0.80 0.0 0 1 938.24 1420.47
  L 914.45 1420.47
  A 1.18 1.18 0.0 0 1 913.27 1419.29
  L 913.27 1317.30
  A 0.84 0.84 0.0 0 1 914.12 1316.46
  Z"
/>
<path fill="#0c233d" d="
  M 541.88 1350.19
  A 0.91 0.90 -86.6 0 1 541.01 1350.97
  L 518.20 1351.74
  A 1.42 1.41 -5.8 0 1 516.76 1350.57
  Q 516.31 1347.91 514.74 1345.51
  Q 508.41 1335.81 496.49 1336.15
  C 481.00 1336.59 473.48 1346.99 471.40 1361.57
  C 468.94 1378.82 475.07 1401.33 497.03 1400.62
  Q 511.69 1400.14 517.64 1385.69
  A 1.64 1.63 -77.4 0 1 519.24 1384.67
  Q 533.57 1385.48 540.60 1386.09
  Q 543.02 1386.30 542.52 1388.47
  C 538.33 1406.69 525.20 1418.40 506.83 1422.17
  Q 489.08 1425.82 472.32 1417.81
  Q 453.56 1408.85 447.46 1388.74
  Q 442.97 1373.92 445.88 1357.64
  C 447.56 1348.25 449.97 1340.50 455.39 1333.47
  C 470.71 1313.58 498.83 1308.73 520.71 1319.74
  Q 535.41 1327.14 540.60 1343.01
  C 541.39 1345.42 542.20 1347.89 541.88 1350.19
  Z"
/>
<rect fill="#0c233d" x="402.37" y="1316.82" width="26.36" height="103.86" rx="0.86"/>
<path fill="#fffffe" d="
  M 866.85 1372.90
  Q 866.92 1377.95 866.47 1382.80
  C 865.41 1394.46 854.86 1401.78 843.85 1402.40
  C 836.82 1402.80 830.91 1402.32 825.56 1397.27
  A 3.57 3.49 -80.8 0 1 824.75 1396.12
  C 820.75 1387.04 825.04 1380.31 833.91 1377.37
  C 844.05 1374.01 855.19 1373.33 866.23 1372.34
  A 0.57 0.56 -2.8 0 1 866.85 1372.90
  Z"
/>
</svg>
