<?xml version="1.0" encoding="UTF-8"?><svg id="Layer_2" xmlns="http://www.w3.org/2000/svg" xmlns:xlink="http://www.w3.org/1999/xlink" viewBox="0 0 2151.58 552.84"><defs><style>.cls-1{fill:url(#linear-gradient-2);}.cls-2{fill:#fff;}.cls-3{fill:url(#linear-gradient);}</style><linearGradient id="linear-gradient" x1="89.68" y1="112.74" x2="316.01" y2="339.07" gradientUnits="userSpaceOnUse"><stop offset="0" stop-color="#1e82fd"/><stop offset="1" stop-color="#f942ff"/></linearGradient><linearGradient id="linear-gradient-2" x1="86.68" y1="204.9" x2="318.68" y2="436.9" xlink:href="#linear-gradient"/></defs><g id="Layer_1-2"><path class="cls-3" d="m201.57,132.85c-5.39,7.33-11.12,14.61-17.17,21.84-17.95,21.43-35.65,43.07-53.12,64.9-7.58,9.48-15.78,19.31-24.59,29.49-.55.64-1.32,1.04-2.16,1.14-1.89.21-4.04.31-6.47.3-32.17-.19-64.08-.15-95.75.1-1.62.01-1.92-.61-.9-1.86,30.15-37.04,60.12-73.91,89.92-110.6C126.24,95.18,160.88,51.98,195.24,8.56c2.21-2.79,4.49-5.53,6.86-8.23.36-.4.97-.44,1.36-.08.04.04.08.08.12.12,44.62,56.53,89.74,112.9,135.37,169.09,21.76,26.8,43.65,53.37,65.68,79.71.67.79.48,1.2-.55,1.21-13.76.19-27.52.25-41.27.18-20.67-.12-41.09-.18-61.27-.18-.93,0-1.81-.42-2.4-1.14l-94.54-116.46c-1.04-1.28-2.05-1.26-3.03.07Z"/><path class="cls-1" d="m202.45,413.73c.47.37,1.15.31,1.54-.15,3.61-4.25,7.15-8.55,10.61-12.91,43.37-54.65,71.54-90.39,84.52-107.23,1.19-1.53,2.56-2.25,4.11-2.14.72.05,1.11.08,1.17.08,33.89-.12,67.61-.04,101.17.25.79,0,.93.31.44.92-6.47,7.99-12.88,16.02-19.21,24.09-60.41,77-120.61,154.16-180.6,231.49-.44.57-.96,1.3-1.55,2.2-.57.86-1.09,1.59-1.58,2.18-.32.39-.89.44-1.28.13-.06-.05-.11-.1-.15-.16L.24,292.18c-.41-.53-.28-.8.39-.8l104.61.31c.32,0,.62.15.81.4,31.03,39.93,62.34,79.63,93.95,119.1.85,1.07,1.67,1.91,2.45,2.54Z"/><path class="cls-2" d="m614.15,283.01h-.22c0,26.66,5.68,47.83,17.03,63.5,11.35,15.68,28.23,23.51,50.65,23.51,16.4,0,30.43-4.61,42.08-13.84s17.47-21.53,17.47-36.91h20.87l.44,1.1c.73,19.48-6.96,35.96-23.07,49.44-16.12,13.48-35.3,20.21-57.57,20.21-28.71,0-51.12-9.78-67.24-29.33-16.12-19.56-24.17-45.45-24.17-77.67v-8.35c0-31.93,8.09-57.71,24.28-77.34,16.18-19.63,38.49-29.44,66.91-29.44,23.87,0,43.54,7,59,20.98,15.45,13.99,22.89,32.12,22.3,54.38l-.44,1.32h-21.09c0-16.99-5.64-30.65-16.92-40.98-11.28-10.33-25.56-15.49-42.85-15.49-22.12,0-38.89,7.88-50.32,23.62-11.43,15.75-17.14,36.73-17.14,62.95v8.35Z"/><path class="cls-2" d="m838.93,76.91v308.5h-23.51V76.91h23.51Z"/><path class="cls-2" d="m931,76.91v33.18h-23.51v-33.18h23.51Zm0,94.48v214.01h-23.51v-214.01h23.51Z"/><path class="cls-2" d="m1008.12,283.01h-.22c0,26.66,5.68,47.83,17.03,63.5,11.35,15.68,28.23,23.51,50.65,23.51,16.4,0,30.43-4.61,42.08-13.84s17.47-21.53,17.47-36.91h20.87l.44,1.1c.73,19.48-6.96,35.96-23.07,49.44-16.12,13.48-35.3,20.21-57.57,20.21-28.71,0-51.12-9.78-67.24-29.33-16.12-19.56-24.17-45.45-24.17-77.67v-8.35c0-31.93,8.09-57.71,24.28-77.34,16.18-19.63,38.49-29.44,66.91-29.44,23.88,0,43.54,7,59,20.98,15.45,13.99,22.89,32.12,22.3,54.38l-.44,1.32h-21.09c0-16.99-5.64-30.65-16.92-40.98-11.28-10.33-25.56-15.49-42.85-15.49-22.12,0-38.89,7.88-50.32,23.62-11.43,15.75-17.14,36.73-17.14,62.95v8.35Z"/><path class="cls-2" d="m1230.27,281.25v104.15h-23.73V76.91h23.73v183.91h25.05l79.32-89.43h27.69l.44,1.1-85.69,96.46,94.7,115.36-.66,1.1h-27.03l-86.57-104.15h-27.25Z"/><path class="cls-2" d="m1429.12,385.4h-23.73v-214.01h20.87l2.86,35.6v2.42c13.48-27.98,34.2-41.97,62.18-41.97,5.42,0,10.62.73,15.6,2.2l-3.08,22.19-17.58-1.32c-14.5,0-26.59,4.1-36.25,12.3-9.67,8.21-16.63,19.85-20.87,34.94v147.66Z"/><path class="cls-2" d="m1597.87,390.24c-20.65,0-36.77-5.46-48.34-16.37-11.57-10.91-17.36-26.07-17.36-45.48s8.53-35.01,25.6-46.8c17.06-11.79,40.1-17.69,69.1-17.69h47.24v-26.59c0-15.38-4.91-27.39-14.72-36.04-9.82-8.64-23.26-12.96-40.32-12.96s-31.06,4.1-41.97,12.3c-10.91,8.21-16.37,18.38-16.37,30.54l-21.75-.22-.44-1.1c-.73-16.4,6.7-30.8,22.3-43.18,15.6-12.38,35.27-18.57,59-18.57s42.63,6.08,56.69,18.24c14.06,12.16,21.09,29.3,21.09,51.42v105.25c0,14.8,1.83,29.08,5.49,42.85l-24.83.44c-2.93-12.89-4.39-24.53-4.39-34.94-8.35,11.72-19.12,21.13-32.3,28.23s-27.76,10.66-43.73,10.66Zm-42.19-60.64c0,11.87,4.03,21.42,12.08,28.67,8.05,7.25,19.74,10.88,35.05,10.88s29.52-3.92,42.63-11.76c13.11-7.83,22.67-18.13,28.67-30.87v-44.6h-47.68c-21.24,0-38.34,4.5-51.31,13.51s-19.45,20.4-19.45,34.17Z"/><path class="cls-2" d="m1760.69,171.39h21.09l1.98,37.35c14.35-27.54,37.5-41.31,69.43-41.31,23.58,0,41.34,7.14,53.28,21.42,11.94,14.28,17.91,36.36,17.91,66.25v130.3h-23.73v-130.08c0-23.87-4.43-41.05-13.29-51.53-8.87-10.47-21.72-15.71-38.56-15.71s-30.58,4.21-41.2,12.63c-10.62,8.43-18.35,20.18-23.18,35.27v149.41h-23.73v-214.01Z"/><path class="cls-2" d="m2010.08,281.25v104.15h-23.73V76.91h23.73v183.91h25.05l79.32-89.43h27.69l.44,1.1-85.69,96.46,94.7,115.36-.66,1.1h-27.03l-86.57-104.15h-27.25Z"/></g></svg>